<?xml version="1.0" encoding="utf-8"?>
<!-- Generator: Adobe Illustrator 15.0.2, SVG Export Plug-In  -->
<!DOCTYPE svg PUBLIC "-//W3C//DTD SVG 1.1//EN" "http://www.w3.org/Graphics/SVG/1.1/DTD/svg11.dtd" [
	<!ENTITY ns_flows "http://ns.adobe.com/Flows/1.0/">
]>
<svg version="1.1"
	 xmlns="http://www.w3.org/2000/svg" xmlns:xlink="http://www.w3.org/1999/xlink" xmlns:a="http://ns.adobe.com/AdobeSVGViewerExtensions/3.0/"
	 x="0px" y="0px" width="120px" height="44px" viewBox="0 0 120 44" overflow="visible" enable-background="new 0 0 120 44"
	 xml:space="preserve">
<defs>
</defs>
<path fill="#B9B9B9" d="M38.028,22.046C43.598,20.752,120,0,120,0S46.597,32.646,35.735,37.135
	C16.23,45.148,6.05,47.258,1.069,37.435c-0.927-1.872-1.312-5.454-0.911-8.185c0.795-5.167,3.339-9.29,6.303-13.34
	c2.172-2.962,4.283-5.362,6.16-7.499c1.703-1.924,1.961-2.149,2.596-2.824c1.043-1.137,2.271-2.294,2.271-2.294
	s-0.258,0.515-0.407,0.849c-0.543,1.054-1.084,2.422-1.386,3.38c-0.51,1.482-1.069,3.452-1.181,5.535
	c-0.217,4.652,1.012,7.82,3.789,9.679C21.857,25.136,25.374,25.013,38.028,22.046"/>
</svg>
