<?xml version="1.0" encoding="utf-8"?>
<!-- Generator: Adobe Illustrator 15.0.2, SVG Export Plug-In  -->
<!DOCTYPE svg PUBLIC "-//W3C//DTD SVG 1.1//EN" "http://www.w3.org/Graphics/SVG/1.1/DTD/svg11.dtd" [
	<!ENTITY ns_flows "http://ns.adobe.com/Flows/1.0/">
]>
<svg version="1.1"
	 xmlns="http://www.w3.org/2000/svg" xmlns:xlink="http://www.w3.org/1999/xlink" xmlns:a="http://ns.adobe.com/AdobeSVGViewerExtensions/3.0/"
	 x="0px" y="0px" width="180px" height="53px" viewBox="0 0 180 53" overflow="visible" enable-background="new 0 0 180 53"
	 xml:space="preserve">
<defs>
</defs>
<polygon fill="#B9B9B9" points="180,52.287 160.37,25.504 178.283,1.172 171.572,1.172 156.964,21.022 142.362,1.172 135.641,1.172 
	153.564,25.514 133.926,52.287 140.644,52.287 156.964,30.121 173.285,52.287 "/>
<polygon fill="#B9B9B9" points="46.065,52.284 26.429,25.504 44.348,1.172 37.632,1.172 23.021,21.025 8.429,1.172 1.721,1.172 
	19.637,25.504 0,52.284 6.721,52.284 23.028,30.121 39.346,52.284 "/>
<path fill="#B9B9B9" d="M69.61,46.95H54.595V28.348H69.61c5.704,0,12.498,1.569,12.498,8.902
	C82.108,45.674,74.284,46.95,69.61,46.95 M54.595,6.509H69.61c4.064,0,10.867,1.021,10.867,8.13c0,5.372-3.957,8.574-10.867,8.574
	H54.595V6.509z M83.429,27.444c-1.07-0.92-2.226-1.62-3.351-2.138c3.716-2.011,6.145-5.808,6.145-10.222
	c0-3.271-1.205-13.913-16.613-13.913H48.864v22.041H41.94c-0.888,1.16-2.928,3.97-3.697,5.126h10.621v23.945l20.746,0.003
	c11.245,0,18.231-5.723,18.231-14.929C87.841,33.342,86.318,29.917,83.429,27.444"/>
<path fill="#B9B9B9" d="M114.845,48.006c-10.946,0-18.608-8.764-18.608-21.309c0-12.542,7.662-21.292,18.608-21.292
	c10.904,0,18.521,8.75,18.521,21.292C133.367,39.242,125.75,48.006,114.845,48.006 M114.845,0c-14.368,0-24.404,10.98-24.404,26.697
	c0,15.732,10.036,26.71,24.404,26.71c14.328,0,24.334-10.978,24.334-26.71C139.179,10.98,129.173,0,114.845,0"/>
</svg>
