<?xml version="1.0" encoding="utf-8"?>
<!-- Generator: Adobe Illustrator 15.0.2, SVG Export Plug-In  -->
<!DOCTYPE svg PUBLIC "-//W3C//DTD SVG 1.1//EN" "http://www.w3.org/Graphics/SVG/1.1/DTD/svg11.dtd" [
	<!ENTITY ns_flows "http://ns.adobe.com/Flows/1.0/">
]>
<svg version="1.1"
	 xmlns="http://www.w3.org/2000/svg" xmlns:xlink="http://www.w3.org/1999/xlink" xmlns:a="http://ns.adobe.com/AdobeSVGViewerExtensions/3.0/"
	 x="0px" y="0px" width="180px" height="74px" viewBox="0 0 180 74" overflow="visible" enable-background="new 0 0 180 74"
	 xml:space="preserve">
<defs>
</defs>
<path fill="#B9B9B9" d="M150.334,12.867c0.912,0.945,1.99,1.687,3.233,2.226c1.242,0.539,2.588,0.808,4.038,0.808
	c1.432,0,2.76-0.269,3.992-0.808c1.232-0.54,2.304-1.281,3.217-2.226c0.911-0.944,1.626-2.062,2.144-3.347
	c0.516-1.288,0.776-2.689,0.776-4.208c0-1.471-0.26-2.846-0.776-4.122c-0.169-0.417-0.368-0.809-0.579-1.19h-3.51
	c0.358,0.608,0.542,1.366,0.542,2.279c0,1.297-0.363,2.25-1.09,2.852c-0.725,0.605-1.625,0.963-2.705,1.074l4.125,6.365h-2.41
	l-3.923-6.2h-2.375v6.2h-2.241V0h-4.024c-0.211,0.381-0.41,0.773-0.578,1.19c-0.516,1.275-0.775,2.65-0.775,4.122
	c0,1.519,0.259,2.92,0.775,4.208C148.706,10.805,149.422,11.922,150.334,12.867"/>
<path fill="#B9B9B9" d="M158.81,4.504c0.451-0.032,0.851-0.125,1.204-0.279c0.351-0.152,0.633-0.388,0.84-0.709
	c0.21-0.319,0.314-0.766,0.314-1.336c0-0.482-0.096-0.868-0.279-1.155c-0.189-0.285-0.429-0.505-0.728-0.661
	c-0.296-0.152-0.637-0.258-1.022-0.311c-0.166-0.025-0.33-0.041-0.494-0.054h-3.611v4.553h2.342
	C157.882,4.553,158.359,4.538,158.81,4.504"/>
<path fill="#B9B9B9" d="M63.422,24.668c-3.126,0-4.782,2.441-4.817,4.941h10.048C68.653,26.664,66.789,24.668,63.422,24.668"/>
<path fill="#B9B9B9" d="M143.448,45.488c-10.962,0-12.958-6.333-12.958-7.904h7.938c0,0.922,1.249,2.028,2.303,2.478
	c0.867,0.372,1.833,0.445,2.737,0.445c2.235,0,4.069-0.543,4.069-1.84c0-1.581-1.878-1.931-3.949-2.229
	c-5.637-0.812-13.537-1.759-13.537-8.064c0-5.882,6.421-8.875,13.238-8.875c10.914,0,13.807,6.047,13.807,7.797h-8.068
	c0-0.522-0.398-1.526-1.498-2.099c-0.816-0.427-2.016-0.772-3.175-0.772c-3.014,0-4.71,0.627-4.71,2.008
	c0,1.128,1.528,1.688,3.724,2.065c5.73,0.983,14.529,1.325,14.529,8.297C157.899,40.335,154.832,45.488,143.448,45.488
	 M129.984,23.18l-3.091,3.361h-1.285l1.417-3.665h-2.832v-4.888h5.791V23.18z M122.277,44.784h-10.259v-24.7h10.259V44.784z
	 M98.64,44.832h-8.963L76.293,20.13H88.37l7.68,15.015l0.211,0.453l0.192-0.453l7.183-15.015h7.252L98.64,44.832z M79.383,34.569
	h-20.76c0,3.208,2.715,5.627,6.333,5.627c2.152,0,4.112-0.712,5.498-2.638h8.278c-2.706,6.217-7.953,7.985-15.109,7.985
	c-9.305,0-15.885-5.039-15.885-13.02c0-8.525,6.48-13.021,15.885-13.021c10.521,0,15.795,6.818,15.795,13.38
	C79.418,33.428,79.46,33.975,79.383,34.569 M47.562,44.793H23.903V20.15H34.54v17.937h13.021V44.793z M168.755,0
	c0.076,0.155,0.159,0.304,0.23,0.464c0.659,1.496,0.99,3.112,0.99,4.848c0,1.785-0.331,3.427-0.99,4.935
	c-0.659,1.502-1.548,2.811-2.672,3.922c-1.121,1.11-2.43,1.975-3.923,2.59c-1.496,0.615-3.089,0.924-4.786,0.924
	c-1.692,0-3.292-0.309-4.796-0.924c-1.506-0.615-2.826-1.48-3.959-2.59c-1.132-1.111-2.028-2.42-2.687-3.922
	c-0.66-1.508-0.991-3.149-0.991-4.935c0-1.736,0.332-3.352,0.991-4.848c0.071-0.16,0.155-0.309,0.231-0.464H0l17.308,73.779
	c36.338-23.369,71.264-0.911,72.669-0.054h0.003c0.003-0.002,0.007-0.005,0.011-0.006h0.018c0.002,0.001,0.007,0.003,0.009,0.006
	h0.007c1.401-0.857,36.329-23.315,72.667,0.054L180,0H168.755z"/>
</svg>
